<?xml version="1.0" encoding="UTF-8"?>
<svg width="917px" height="118px" viewBox="0 0 917 118" version="1.1" xmlns="http://www.w3.org/2000/svg" xmlns:xlink="http://www.w3.org/1999/xlink">
    <!-- Generator: sketchtool 52.5 (67469) - http://www.bohemiancoding.com/sketch -->
    <title>73C48DF3-61BA-4845-B15D-7BABA6AB7336</title>
    <desc>Created with sketchtool.</desc>
    <g id="LOGO" stroke="none" stroke-width="1" fill="none" fill-rule="evenodd">
        <g id="logo-FINAL-beta2-svg" transform="translate(-160.000000, -376.000000)" fill="#FF505A">
            <g id="Group-4" transform="translate(160.000000, 376.000000)">
                <g id="Group">
                    <path d="M185.372988,40.9477696 C203.469499,42.9594459 217.555434,58.6648781 217.555434,77.7411071 C217.555434,80.6736723 217.700588,83.6929608 217.768205,86.6712206 C220.391427,89.5130166 222,93.3482685 222,97.5684559 C222,106.32873 215.068731,113.430335 206.518577,113.430335 C204.767466,113.430335 203.084259,113.132459 201.514592,112.583464 C194.855861,114.39319 187.110355,115 181.432114,115 C175.873888,115 168.896915,113.923368 162.711945,111.806945 C160.65171,112.84643 158.33312,113.430335 155.881423,113.430335 C147.331269,113.430335 140.4,106.32873 140.4,97.5684559 C140.4,93.0316229 142.259015,88.9396567 145.239151,86.0485862 C145.227141,83.3320295 145.308793,80.5403272 145.308793,77.7411071 C145.308793,61.4807578 155.543145,47.6695127 169.772023,42.7005415 C167.501064,39.7629013 166.09616,34.9340682 165.557312,28.214042 C169.183629,29.1667999 172.146234,30.4874537 174.445127,32.1760033 C175.198972,30.5923702 176.178175,28.8670145 177.382733,26.999936 C182.640935,29.8839258 185.438977,33.0935782 185.776858,36.6288933 C185.910517,38.0273978 185.775894,39.4670232 185.372988,40.9477696 Z M208.123241,102.484724 C208.891902,99.1613435 204.464135,88.8334295 202.411198,89.626998 C200.176179,90.4909511 194.803523,84.7888607 191.593677,80.5554905 C191.096254,79.8994537 190.511278,79.2916558 189.838751,78.7320967 C187.577296,75.8603891 184.114225,74.0234792 180.232411,74.0234792 C176.168614,74.0234792 172.563743,76.0366583 170.316017,79.1427217 C169.837735,79.584964 169.409866,80.055019 169.03241,80.5528867 C165.822564,84.7867047 160.449908,90.4893984 158.214889,89.6253539 C156.161969,88.8317079 151.734258,99.1605389 152.502828,102.484359 C152.327547,103.755965 152.399357,104.773318 152.83529,105.256201 C154.105434,106.663142 163.264686,107.319554 180.313043,107.225438 C197.361401,107.319544 206.520653,106.663202 207.790797,105.256411 C208.226746,104.773561 208.298545,103.75626 208.123241,102.484724 Z M206.518577,78.6498605 C209.279564,78.6498605 211.517787,76.3566339 211.517787,73.5277954 C211.517787,70.698957 209.279564,68.4057303 206.518577,68.4057303 C203.75759,68.4057303 201.519368,70.698957 201.519368,73.5277954 C201.519368,76.3566339 203.75759,78.6498605 206.518577,78.6498605 Z M204.018972,73.6930233 C203.484588,73.6930233 203.051383,73.249173 203.051383,72.7016559 C203.051383,72.1541388 203.484588,71.7102885 204.018972,71.7102885 C204.553357,71.7102885 204.986561,72.1541388 204.986561,72.7016559 C204.986561,73.249173 204.553357,73.6930233 204.018972,73.6930233 Z M173.100188,85.0176464 C172.726606,84.9406648 172.941097,83.9968819 173.579267,82.9096483 C174.217437,81.8224147 175.037625,81.0034437 175.411207,81.0804253 C175.78479,81.1574069 175.570299,82.1011898 174.932129,83.1884234 C174.293958,84.275657 173.473771,85.094628 173.100188,85.0176464 Z M186.973667,84.9809631 C186.600085,85.0579447 185.779897,84.2389737 185.141727,83.1517401 C184.503556,82.0645065 184.289066,81.1207236 184.662648,81.043742 C185.036231,80.9667603 185.856418,81.7857313 186.494588,82.8729649 C187.132759,83.9601985 187.34725,84.9039814 186.973667,84.9809631 Z" id="Combined-Shape"></path>
                    <path d="M234.8,112.5296 L234.8,31.8896 L258.64,31.8896 C261.822209,34.4496075 264.782209,34.9829408 267.52,33.4896 C271.626687,31.2495888 276.453306,30.1296 282,30.1296 C283.600008,30.1296 285.679987,30.2895984 288.24,30.6096 L288.24,53.0096 C285.786654,52.476264 283.120014,52.2096 280.24,52.2096 C273.413299,52.2096 268.106686,54.0495816 264.32,57.7296 C260.533314,61.4096184 258.64,66.5562336 258.64,73.1696 L258.64,112.5296 L234.8,112.5296 Z M301.84,112.5296 L301.84,1.0096 L325.68,1.0096 L325.68,62.6096 L352.24,31.8896 L379.92,31.8896 L347.76,68.3696 L382.64,112.5296 L355.76,112.5296 L332.4,82.7696 L325.68,89.9696 L325.68,112.5296 L301.84,112.5296 Z M383.92,100.3696 L397.68,85.6496 C399.920011,88.31628 403.013314,90.449592 406.96,92.0496 C410.906686,93.649608 415.17331,94.4496 419.76,94.4496 C427.866707,94.4496 431.92,92.2629552 431.92,87.8896 C431.92,86.289592 431.040009,85.0096048 429.28,84.0496 C427.519991,83.0895952 424.240024,82.0229392 419.44,80.8496 C414.639976,79.6762608 411.013346,78.6629376 408.56,77.8096 C396.186605,73.542912 390,66.07632 390,55.4096 C390,47.1962256 393.03997,40.822956 399.12,36.2896 C405.20003,31.756244 412.61329,29.4896 421.36,29.4896 C433.413394,29.4896 443.333294,32.956232 451.12,39.8896 L439.76,55.5696 C434.959976,51.6229136 428.613373,49.6496 420.72,49.6496 C418.159987,49.6496 416.186674,50.1295952 414.8,51.0896 C413.413326,52.0496048 412.72,53.2762592 412.72,54.7696 C412.72,55.836272 412.959998,56.6895968 413.44,57.3296 C413.920002,57.9696032 414.799994,58.556264 416.08,59.0896 C417.360006,59.622936 418.746659,60.0762648 420.24,60.4496 C421.733341,60.8229352 423.866653,61.3829296 426.64,62.1296 C429.413347,62.8762704 432.13332,63.7295952 434.8,64.6896 C448.026733,69.1696224 454.64,76.7962128 454.64,87.5696 C454.64,95.7829744 451.68003,102.369575 445.76,107.3296 C439.83997,112.289625 430.960059,114.7696 419.12,114.7696 C403.439922,114.7696 391.706706,109.969648 383.92,100.3696 Z M476.4,102.4496 C467.866624,94.3428928 463.6,84.2096608 463.6,72.0496 C463.6,59.8895392 467.89329,49.7296408 476.48,41.5696 C485.06671,33.4095592 495.599938,29.3296 508.08,29.3296 C521.306733,29.3296 532.506621,34.3428832 541.68,44.3696 L526.64,59.2496 C521.413307,53.7029056 515.226702,50.9296 508.08,50.9296 C502.213304,50.9296 497.306686,52.92958 493.36,56.9296 C489.413314,60.92962 487.44,65.9695696 487.44,72.0496 C487.44,78.1296304 489.43998,83.1429136 493.44,87.0896 C497.44002,91.0362864 502.319971,93.0096 508.08,93.0096 C515.226702,93.0096 521.413307,90.2362944 526.64,84.6896 L541.68,99.5696 C537.533781,104.101514 532.973568,107.609236 527.999329,110.092782 C521.968222,113.104002 515.328464,114.6096 508.08,114.6096 C495.599938,114.6096 485.040043,110.556307 476.4,102.4496 Z M656.88,102.6096 C648.239957,94.2895584 643.92,84.1563264 643.92,72.2096 C643.92,60.2628736 648.266623,50.156308 656.96,41.8896 C665.653377,33.622892 676.239938,29.4896 688.72,29.4896 C701.093395,29.4896 711.65329,33.622892 720.4,41.8896 C729.14671,50.156308 733.52,60.2628736 733.52,72.2096 C733.52,84.1563264 729.14671,94.262892 720.4,102.5296 C711.65329,110.796308 701.093395,114.9296 688.72,114.9296 C676.239938,114.9296 665.62671,110.822974 656.88,102.6096 Z M667.76,72.2096 C667.76,78.1829632 669.786646,83.1962464 673.84,87.2496 C677.893354,91.3029536 682.853304,93.3296 688.72,93.3296 C694.586696,93.3296 699.546646,91.2762872 703.6,87.1696 C707.653354,83.0629128 709.68,78.076296 709.68,72.2096 C709.68,66.342904 707.653354,61.3562872 703.6,57.2496 C699.546646,53.1429128 694.586696,51.0896 688.72,51.0896 C682.853304,51.0896 677.893354,53.1429128 673.84,57.2496 C669.786646,61.3562872 667.76,66.342904 667.76,72.2096 Z M757.04,102.6096 C748.399957,94.2895584 744.08,84.1563264 744.08,72.2096 C744.08,60.2628736 748.426623,50.156308 757.12,41.8896 C765.813377,33.622892 776.399938,29.4896 788.88,29.4896 C801.253395,29.4896 811.81329,33.622892 820.56,41.8896 C829.30671,50.156308 833.68,60.2628736 833.68,72.2096 C833.68,84.1563264 829.30671,94.262892 820.56,102.5296 C811.81329,110.796308 801.253395,114.9296 788.88,114.9296 C776.399938,114.9296 765.78671,110.822974 757.04,102.6096 Z M767.92,72.2096 C767.92,78.1829632 769.946646,83.1962464 774,87.2496 C778.053354,91.3029536 783.013304,93.3296 788.88,93.3296 C794.746696,93.3296 799.706646,91.2762872 803.76,87.1696 C807.813354,83.0629128 809.84,78.076296 809.84,72.2096 C809.84,66.342904 807.813354,61.3562872 803.76,57.2496 C799.706646,53.1429128 794.746696,51.0896 788.88,51.0896 C783.013304,51.0896 778.053354,53.1429128 774,57.2496 C769.946646,61.3562872 767.92,66.342904 767.92,72.2096 Z" id="rkschool"></path>
                    <polygon id="W" points="41.36 117.4096 0.72 1.4096 25.68 1.4096 46.32 60.2896 76.4 0.6096 106.48 60.2896 127.12 1.4096 152.08 1.4096 111.44 117.4096 76.4 49.0896"></polygon>
                    <rect id="Rectangle" x="847.6" y="1.4" width="24" height="113.6"></rect>
                    <path d="M577.2,113.259424 L554.8,113.259424 L554.8,74.0628691 C554.8,64.2304448 555.887808,56.5576007 559.757452,48.9083474 C565.736074,37.0902083 577.054241,30.2 592.942112,30.2 C608.829982,30.2 620.148149,37.0902083 626.126771,48.9083474 C629.996415,56.5576007 631.084223,64.2304448 631.084223,74.0628691 L631.084223,113.259424 L608.684223,113.259424 L608.684223,74.0628691 C608.684223,59.1050616 605.393409,52.6 592.942112,52.6 C580.490814,52.6 577.2,59.1050616 577.2,74.0628691 L577.2,113.259424 Z" id="Path-2" fill-rule="nonzero"></path>
                    <path d="M554.8,1.4 L577.2,1.4 L577.2,29.5545148 C573.418629,30.6668057 569.478321,32.9470437 565.379074,36.3952288 C561.279828,39.8434139 557.75347,45.2602198 554.8,52.6456465 L554.8,1.4 Z" id="Rectangle"></path>
                    <circle id="Oval" cx="778.8" cy="65.4" r="4.8"></circle>
                </g>
                <text id="TM" font-family="Avenir-Medium, Avenir" font-size="22" font-weight="400" letter-spacing="1.382857">
                    <tspan x="884" y="115">TM</tspan>
                </text>
                <path d="M755.7,19 L755.7,1.575 L762.625,1.575 C764.025007,1.575 765.204162,1.99582912 766.1625,2.8375 C767.120838,3.67917088 767.6,4.74166025 767.6,6.025 C767.6,6.8583375 767.404169,7.58749688 767.0125,8.2125 C766.620831,8.83750312 766.075003,9.27499875 765.375,9.525 C766.491672,9.725001 767.354164,10.2166627 767.9625,11 C768.570836,11.7833373 768.875,12.7333278 768.875,13.85 C768.875,15.3333407 768.370838,16.5624951 767.3625,17.5375 C766.354162,18.5125049 765.091674,19 763.575,19 L755.7,19 Z M759.475,8.525 L762,8.525 C762.550003,8.525 762.999998,8.35000175 763.35,8 C763.700002,7.64999825 763.875,7.208336 763.875,6.675 C763.875,6.15833075 763.700002,5.72916838 763.35,5.3875 C762.999998,5.04583162 762.558336,4.875 762.025,4.875 L759.475,4.875 L759.475,8.525 Z M759.475,15.675 L762.8,15.675 C763.450003,15.675 763.987498,15.4708354 764.4125,15.0625 C764.837502,14.6541646 765.05,14.150003 765.05,13.55 C765.05,12.949997 764.837502,12.4583352 764.4125,12.075 C763.987498,11.6916647 763.44167,11.5 762.775,11.5 L759.475,11.5 L759.475,15.675 Z M773.9,19 L773.9,1.575 L785.8,1.575 L785.8,5.075 L777.75,5.075 L777.75,8.35 L785.275,8.35 L785.275,11.775 L777.75,11.775 L777.75,15.5 L785.975,15.5 L785.975,19 L773.9,19 Z M794.675,19 L794.675,5.075 L789.95,5.075 L789.95,1.575 L803.175,1.575 L803.175,5.075 L798.525,5.075 L798.525,19 L794.675,19 Z M809.55,16.225 L808.15,19 L804.075,19 L813.15,1.325 L822.225,19 L818.125,19 L816.725,16.225 L809.55,16.225 Z M815.05,12.95 L813.125,9.125 L811.2,12.95 L815.05,12.95 Z" id="BETA"></path>
            </g>
        </g>
    </g>
</svg>